<svg width="27" height="24" viewBox="0 0 27 24" fill="none" xmlns="http://www.w3.org/2000/svg">
<path fill-rule="evenodd" clip-rule="evenodd" d="M18.4091 8.79604C18.4091 9.88176 17.8919 10.923 16.9712 11.6907C16.0506 12.4584 14.8019 12.8897 13.5 12.8897C12.198 12.8897 10.9494 12.4584 10.0287 11.6907C9.10809 10.923 8.59088 9.88176 8.59088 8.79604C8.59088 7.71032 9.10809 6.66907 10.0287 5.90135C10.9494 5.13363 12.198 4.70233 13.5 4.70233C14.8019 4.70233 16.0506 5.13363 16.9712 5.90135C17.8919 6.66907 18.4091 7.71032 18.4091 8.79604ZM15.9545 8.79604C15.9545 9.3389 15.6959 9.85952 15.2356 10.2434C14.7753 10.6272 14.151 10.8429 13.5 10.8429C12.849 10.8429 12.2247 10.6272 11.7643 10.2434C11.304 9.85952 11.0454 9.3389 11.0454 8.79604C11.0454 8.25318 11.304 7.73255 11.7643 7.34869C12.2247 6.96484 12.849 6.74919 13.5 6.74919C14.151 6.74919 14.7753 6.96484 15.2356 7.34869C15.6959 7.73255 15.9545 8.25318 15.9545 8.79604Z" fill="white"/>
<path fill-rule="evenodd" clip-rule="evenodd" d="M13.5 0.608643C6.04432 0.608643 0 5.64902 0 11.8663C0 18.0837 6.04432 23.124 13.5 23.124C20.9557 23.124 27 18.0837 27 11.8663C27 5.64902 20.9557 0.608643 13.5 0.608643ZM2.45455 11.8663C2.45455 14.0053 3.32959 15.9744 4.79618 17.5382C5.82615 16.4103 7.15488 15.4962 8.67858 14.8673C10.2023 14.2385 11.8797 13.912 13.5798 13.9132C15.2579 13.9119 16.9142 14.23 18.4225 14.8433C19.9308 15.4566 21.2514 16.3489 22.2836 17.4522C23.347 16.2892 24.0629 14.9317 24.3723 13.4921C24.6816 12.0526 24.5754 10.5723 24.0625 9.17369C23.5496 7.77512 22.6447 6.49851 21.4226 5.44949C20.2006 4.40047 18.6966 3.60919 17.035 3.14112C15.3734 2.67306 13.6021 2.54166 11.8676 2.75781C10.133 2.97396 8.48511 3.53144 7.06022 4.38412C5.63533 5.2368 4.4744 6.36017 3.67351 7.66128C2.87261 8.96239 2.45477 10.4038 2.45455 11.8663ZM13.5 21.0772C10.9644 21.0804 8.50533 20.3529 6.53891 19.018C7.33041 18.0732 8.38391 17.3017 9.60978 16.7693C10.8356 16.2368 12.1976 15.9592 13.5798 15.96C14.9447 15.9591 16.2902 16.2298 17.5045 16.7495C18.7188 17.2693 19.7669 18.0231 20.5617 18.9485C18.58 20.3267 16.0804 21.0802 13.5 21.0772Z" fill="white"/>
</svg>
