<svg width="42" height="60" viewBox="0 0 42 60" fill="none" xmlns="http://www.w3.org/2000/svg">
<g filter="url(#filter0_d_47_46)">
<path d="M8.82485 51.9933C7.6995 51.995 6.6089 51.6934 5.74237 51.1409C5.25467 50.8298 4.85153 50.4477 4.55604 50.0165C4.26054 49.5853 4.0785 49.1135 4.02034 48.6281C3.96218 48.1427 4.02904 47.6532 4.21709 47.1877C4.40515 46.7222 4.71069 46.2898 5.11624 45.9153L26.6936 26.0508L5.88687 6.14925C5.48679 5.77016 5.18802 5.33397 5.00774 4.86575C4.82745 4.39753 4.7692 3.9065 4.83634 3.4209C4.90347 2.9353 5.09467 2.4647 5.39894 2.03614C5.70321 1.60759 6.11455 1.22952 6.60932 0.92369C7.10765 0.586303 7.69123 0.331817 8.32344 0.176202C8.95565 0.0205882 9.62284 -0.0327929 10.2831 0.0194066C10.9434 0.0716062 11.5826 0.228261 12.1604 0.479539C12.7383 0.730817 13.2425 1.07129 13.6412 1.4796L36.9043 23.716C37.6127 24.3791 38 25.2109 38 26.0694C38 26.9278 37.6127 27.7596 36.9043 28.4227L12.8224 50.6591C12.3393 51.1076 11.7255 51.4621 11.0309 51.694C10.3364 51.9258 9.58057 52.0283 8.82485 51.9933Z" fill="black"/>
</g>
<defs>
<filter id="filter0_d_47_46" x="0" y="0" width="42" height="60" filterUnits="userSpaceOnUse" color-interpolation-filters="sRGB">
<feFlood flood-opacity="0" result="BackgroundImageFix"/>
<feColorMatrix in="SourceAlpha" type="matrix" values="0 0 0 0 0 0 0 0 0 0 0 0 0 0 0 0 0 0 127 0" result="hardAlpha"/>
<feOffset dy="4"/>
<feGaussianBlur stdDeviation="2"/>
<feComposite in2="hardAlpha" operator="out"/>
<feColorMatrix type="matrix" values="0 0 0 0 0 0 0 0 0 0 0 0 0 0 0 0 0 0 0.25 0"/>
<feBlend mode="normal" in2="BackgroundImageFix" result="effect1_dropShadow_47_46"/>
<feBlend mode="normal" in="SourceGraphic" in2="effect1_dropShadow_47_46" result="shape"/>
</filter>
</defs>
</svg>
